<?xml version="1.0" encoding="UTF-8"?>
<svg id="katman_2" xmlns="http://www.w3.org/2000/svg" viewBox="0 0 232.85 232.85">
  <defs>
    <style>
      .cls-1 {
        stroke: #8eafb8;
        stroke-width: 3px;
      }

      .cls-1, .cls-2, .cls-3 {
        fill: none;
        stroke-miterlimit: 10;
      }

      .cls-2 {
        stroke: #fff;
      }

      .cls-2, .cls-3 {
        stroke-width: 5px;
      }

      .cls-4 {
        fill: #203562;
      }

      .cls-3 {
        stroke: #f4f4f4;
      }
    </style>
  </defs>
  <g id="katman_1">
    <circle class="cls-4" cx="116.43" cy="116.43" r="116.43"/>
    <g>
      <polyline class="cls-1" points="91.79 148.05 91.79 109.74 91.79 95.91"/>
      <line class="cls-1" x1="178.42" y1="65.09" x2="120.05" y2="65.09"/>
      <polyline class="cls-1" points="148.3 24.47 148.3 72.03 148.3 83.25"/>
      <line class="cls-1" x1="120.05" y1="114.57" x2="65.57" y2="114.57"/>
      <circle class="cls-3" cx="147.96" cy="111.5" r="28.26"/>
      <circle class="cls-3" cx="147.96" cy="180.12" r="28.26"/>
      <line class="cls-3" x1="147.96" y1="138.89" x2="147.96" y2="153.6"/>
      <g>
        <path class="cls-2" d="M86.36,27.52c1.1,4.01,1.29,8.21.58,12.29-.95,5.55-3.57,10.85-7.85,15.13s-9.59,6.9-15.13,7.85c-3.15.56-6.38.57-9.53.03"/>
        <path class="cls-2" d="M79.09,54.94c4.28-4.28,6.89-9.58,7.85-15.13,8.75-1.52,18.07,1.1,24.83,7.86,11.04,11.04,11.04,28.93,0,39.96s-28.93,11.04-39.97,0c-6.75-6.75-9.38-16.08-7.85-24.83,5.54-.95,10.85-3.57,15.13-7.85Z"/>
      </g>
    </g>
  </g>
</svg>