<svg xmlns="http://www.w3.org/2000/svg" viewBox="0 0 1417.27 269.59">
    <defs>
        <style>
            .cls-1{fill:none;}
            .cls-2{fill:#ccc;}
            .cls-3{fill:grey;}
            path, text { fill: #ccc; }
        </style>
    </defs>
    <title>Main Logo for web use</title>
    <g id="Layer_2" data-name="Layer 2">
        <g id="Layer_1-2" data-name="Layer 1">
            <path class="cls-1" d="M842.58,95a56.54,56.54,0,0,0-17.89-12,55.11,55.11,0,0,0-21.93-4.44A54.09,54.09,0,0,0,781,83a58.52,58.52,0,0,0-17.89,12,56,56,0,0,0-16.55,39.81,54.14,54.14,0,0,0,4.44,21.8,57.1,57.1,0,0,0,30,30A54.09,54.09,0,0,0,802.76,191a56,56,0,0,0,39.82-16.55,58.31,58.31,0,0,0,12-17.89,54.14,54.14,0,0,0,4.44-21.8,55,55,0,0,0-4.44-21.92A56.24,56.24,0,0,0,842.58,95Z"/>
            <path class="cls-1" d="M72.16,179.55c.78,0,1.55,0,2.32-.06h0a45.24,45.24,0,0,0,39.7-28.56l0-.05A47.76,47.76,0,0,0,116,137.45V123.66a45.17,45.17,0,1,0-43.88,55.89Z"/>
            <path class="cls-1" d="M438.61,95.24a58.54,58.54,0,0,0-17.9-12,54.09,54.09,0,0,0-21.79-4.44,54.76,54.76,0,0,0-22.06,4.44,55.65,55.65,0,0,0-29.73,29.87,55,55,0,0,0-4.44,21.92,54.14,54.14,0,0,0,4.44,21.8,58.49,58.49,0,0,0,12,17.89,55.72,55.72,0,0,0,17.76,12.11,54.76,54.76,0,0,0,22.06,4.44,54.09,54.09,0,0,0,21.79-4.44,57,57,0,0,0,30-30,54.14,54.14,0,0,0,4.44-21.8,56.08,56.08,0,0,0-16.54-39.82Z"/>
            <path class="cls-1" d="M1047.73,93.09a55.07,55.07,0,0,0-37.27-14.26A55.89,55.89,0,0,0,990,82.6a54.52,54.52,0,0,0-17.09,10.49,59.49,59.49,0,0,0-12.24,15.61,54.56,54.56,0,0,0-6.19,19.37h111.66A54.56,54.56,0,0,0,1060,108.7,59.49,59.49,0,0,0,1047.73,93.09Z"/>
            <path d="M448.56,85.15a71.26,71.26,0,0,0-22.33-15.06,68.12,68.12,0,0,0-27.31-5.52,69.1,69.1,0,0,0-27.44,5.52A69.82,69.82,0,0,0,334,107.62a68.13,68.13,0,0,0-5.2,20.67H309.24c.1,1.53.16,3.07.16,4.62s-.06,3.09-.16,4.62h19.19V269.59h14.26V177.3a67.44,67.44,0,0,0,24.08,20.45,69.35,69.35,0,0,0,32.15,7.54,68.29,68.29,0,0,0,27.31-5.52,70.68,70.68,0,0,0,37.4-37.4,68.28,68.28,0,0,0,5.51-27.31,69.26,69.26,0,0,0-5.51-27.44A70.73,70.73,0,0,0,448.56,85.15Zm2.15,71.71a57,57,0,0,1-30,30,54.09,54.09,0,0,1-21.79,4.44,54.76,54.76,0,0,1-22.06-4.44,55.72,55.72,0,0,1-17.76-12.11,58.49,58.49,0,0,1-12-17.89,54.14,54.14,0,0,1-4.44-21.8,55,55,0,0,1,4.44-21.92,55.65,55.65,0,0,1,29.73-29.87,54.76,54.76,0,0,1,22.06-4.44,54.09,54.09,0,0,1,21.79,4.44,58.54,58.54,0,0,1,17.9,12,56.08,56.08,0,0,1,16.54,39.82A54.14,54.14,0,0,1,450.71,156.86Z"/>
            <path d="M563.85,78.29V64a68.29,68.29,0,0,0-27.31,5.52,70.34,70.34,0,0,0-37.4,37.53,69.1,69.1,0,0,0-5.51,27.45v67.26h14V134.53a56,56,0,0,1,16.54-39.82,58.76,58.76,0,0,1,17.89-12A54.14,54.14,0,0,1,563.85,78.29Z"/>
            <path d="M852.67,84.89a70.68,70.68,0,0,0-22.46-15.07,69.11,69.11,0,0,0-27.45-5.52A67.76,67.76,0,0,0,770.88,72a71.25,71.25,0,0,0-24.35,20.58V.27h-14v128h-17.3a75.5,75.5,0,0,0-70.63-70.63V27.27h-9.23V57.66a75.5,75.5,0,0,0-70.63,70.63h-30.4v9.24h30.4a75.49,75.49,0,0,0,70.63,70.63v30.4h9.23v-30.4a75.49,75.49,0,0,0,70.63-70.63h17.37a67.48,67.48,0,0,0,5.45,24.57,70.62,70.62,0,0,0,37.39,37.4A68.15,68.15,0,0,0,802.76,205a69.11,69.11,0,0,0,27.45-5.52,70.34,70.34,0,0,0,37.53-37.4,68.25,68.25,0,0,0,5.51-27.31,69.26,69.26,0,0,0-5.51-27.44A70.57,70.57,0,0,0,852.67,84.89ZM640,201.46a68.55,68.55,0,1,1,68.55-68.55A68.56,68.56,0,0,1,640,201.46Zm214.55-44.87a58.31,58.31,0,0,1-12,17.89A56,56,0,0,1,802.76,191,54.09,54.09,0,0,1,781,186.59a57.1,57.1,0,0,1-30-30,54.14,54.14,0,0,1-4.44-21.8A56,56,0,0,1,763.08,95,58.52,58.52,0,0,1,781,83a54.09,54.09,0,0,1,21.79-4.44A55.11,55.11,0,0,1,824.69,83a55.4,55.4,0,0,1,29.86,29.87A55,55,0,0,1,859,134.79,54.14,54.14,0,0,1,854.55,156.59Z"/>
            <path d="M908.77,169.5V0h-14V169.5a33.9,33.9,0,0,0,2.83,13.72,37.49,37.49,0,0,0,7.53,11.3,33.1,33.1,0,0,0,11.17,7.54A35.37,35.37,0,0,0,930,204.75v-14a21.12,21.12,0,0,1-21.25-21.26Z"/>
            <path d="M1060.1,85.15a71.26,71.26,0,0,0-22.33-15.06,68.12,68.12,0,0,0-27.31-5.52A69.1,69.1,0,0,0,983,70.09a69.91,69.91,0,0,0-37.53,37.53A69.1,69.1,0,0,0,940,135.06a68.12,68.12,0,0,0,5.52,27.31A70.34,70.34,0,0,0,983,199.77a69.27,69.27,0,0,0,27.44,5.52,50.9,50.9,0,0,0,20.59-4.18A53,53,0,0,0,1047.59,190l-9.95-10a38.81,38.81,0,0,1-12.38,8.35,37.65,37.65,0,0,1-14.8,3A55.89,55.89,0,0,1,990,187.53,54.52,54.52,0,0,1,972.93,177a59.49,59.49,0,0,1-12.24-15.61,54.63,54.63,0,0,1-6.19-19.37h125.92a26.25,26.25,0,0,0,.27-3.5v-3.5a69.27,69.27,0,0,0-5.52-27.44A70.73,70.73,0,0,0,1060.1,85.15ZM954.5,128.07a54.56,54.56,0,0,1,6.19-19.37,59.49,59.49,0,0,1,12.24-15.61A54.52,54.52,0,0,1,990,82.6a55.89,55.89,0,0,1,20.44-3.77,55.07,55.07,0,0,1,37.27,14.26A59.49,59.49,0,0,1,1060,108.7a54.56,54.56,0,0,1,6.19,19.37Z"/>
            <path d="M1285,79.5a53.51,53.51,0,0,0-16.82-11.3A51.29,51.29,0,0,0,1247.77,64,50.58,50.58,0,0,0,1221,71.3a53.69,53.69,0,0,0-19,19.37,53.49,53.49,0,0,0-19.1-19.37,52.63,52.63,0,0,0-47.22-3.1A53.92,53.92,0,0,0,1119,79.5a53.29,53.29,0,0,0-11.3,16.82,51,51,0,0,0-4.17,20.45v85h14v-85a37.88,37.88,0,0,1,23.54-35.52,39.29,39.29,0,0,1,15.2-3,38.17,38.17,0,0,1,27.31,11.17,40.19,40.19,0,0,1,8.34,12.24,36.91,36.91,0,0,1,3.09,15.07v85h14v-85a38.17,38.17,0,0,1,11.17-27.31,37.83,37.83,0,0,1,12.38-8.21,39.29,39.29,0,0,1,15.2-3,38.15,38.15,0,0,1,38.47,38.48v85h14.26v-85a51.2,51.2,0,0,0-4.17-20.45A53.46,53.46,0,0,0,1285,79.5Z"/>
            <path d="M1414.17,146.23a35.64,35.64,0,0,0-7.53-10.63,34,34,0,0,0-11-7.13,35.32,35.32,0,0,0-13.32-2.56h-20.18a20.92,20.92,0,0,1-21-19.64,22.15,22.15,0,0,1,0-7,20.94,20.94,0,0,1,21-19.64h50.58v-14h-50.58a35.58,35.58,0,0,0-24.35,9.55,34,34,0,0,0-7.53,10.49,33.69,33.69,0,0,0-3.09,13,30.25,30.25,0,0,0,0,8.07,34,34,0,0,0,10.62,23.54,35.65,35.65,0,0,0,24.35,9.56H1382a20.22,20.22,0,0,1,14.8,6.18,21.23,21.23,0,0,1,6.46,14.8v5.65a12.44,12.44,0,0,1-.14,1.75A12.35,12.35,0,0,0,1403,170a21.2,21.2,0,0,1-21,17.76h-51.93v14H1382a34.44,34.44,0,0,0,13.59-2.69,36.05,36.05,0,0,0,11.16-7.4,35.69,35.69,0,0,0,7.67-10.9,31.89,31.89,0,0,0,2.83-13.45v-8.07A33.48,33.48,0,0,0,1414.17,146.23Z"/>
            <path d="M234,208.32c-1.56,0-3.09-.07-4.62-.16v30.4h9.23v-30.4C237.09,208.25,235.55,208.32,234,208.32Z"/>
            <path d="M234,57.51c1.55,0,3.09.06,4.61.15V27.27h-9.23V57.66C230.91,57.57,232.44,57.51,234,57.51Z"/>
            <path d="M158.59,132.91c0-1.55.06-3.09.16-4.62h-14.7a71.55,71.55,0,0,0-1.28-8.84c0-.1-.05-.2-.07-.3l.07-56.93H116.35V77.39a72.16,72.16,0,1,0,0,114v.42c0,37.48-19.8,48.39-47.44,48.39-18.43,0-33.31-4.45-43.14-10.59l-7.72,23c12,8,31.64,12.29,49.46,12.29,18.73,0,39.62-4.3,54.06-17.82,13.18-11.77,20-30.22,21-59.28h0v-.07c.11-2.75.16-5.58.16-8.53V149.32a72.66,72.66,0,0,0,1.48-11.79h14.5C158.65,136,158.59,134.46,158.59,132.91ZM33.89,110.44A45.15,45.15,0,0,1,116,123.66v13.79a47.76,47.76,0,0,1-1.83,13.43l0,.05a45.24,45.24,0,0,1-39.7,28.56h0c-.77,0-1.54.06-2.32.06a45.14,45.14,0,0,1-38.27-69.11Z"/>
            <path class="cls-3" d="M234,201.46a68.55,68.55,0,1,0-68.56-68.55A68.55,68.55,0,0,0,234,201.46ZM276,176a65.42,65.42,0,0,1-8.92,7.32,53.38,53.38,0,0,1-10.18,5.48,41.23,41.23,0,0,1-5.52,1.77,32.4,32.4,0,0,1-5.7.84c1.83-.58,3.63-1.16,5.37-1.88.44-.17.87-.36,1.31-.54l.65-.27.64-.3,1.27-.58,1.27-.62a88.41,88.41,0,0,0,9.64-5.74c3.1-2.11,6.09-4.39,9-6.77s5.77-4.88,8.59-7.47A56,56,0,0,1,276,176Zm-96.21-55.78c.06-.72.14-1.44.22-2.17a9.71,9.71,0,0,1,.17-1.08l.2-1.08a42.2,42.2,0,0,1,1.05-4.27c.19-.71.48-1.39.72-2.09a20.49,20.49,0,0,1,.81-2.06,45.56,45.56,0,0,1,10-14.58c.54-.51,1.06-1.05,1.62-1.53l1.66-1.46L198,88.57c.58-.46,1.19-.88,1.79-1.31a57,57,0,0,1,15.69-7.7c1.39-.42,2.79-.81,4.21-1.11a33,33,0,0,1,4.29-.67c-2.63,1.19-5.17,2.44-7.66,3.79s-4.9,2.75-7.25,4.26-4.61,3.11-6.77,4.82a64.22,64.22,0,0,0-6.19,5.44,59.86,59.86,0,0,0-10,13c-.37.58-.68,1.2-1,1.81s-.65,1.22-.94,1.85c-.57,1.26-1.2,2.52-1.68,3.83-.26.65-.55,1.29-.78,2s-.46,1.33-.71,2-.45,1.35-.65,2-.43,1.37-.67,2.06A42,42,0,0,1,179.82,120.26Z"/>
            <path class="cls-2" d="M180.37,122.54c.2-.68.39-1.36.65-2s.48-1.34.71-2,.52-1.31.78-2c.48-1.31,1.11-2.57,1.68-3.83.29-.63.63-1.23.94-1.85s.63-1.23,1-1.81a59.86,59.86,0,0,1,10-13,64.22,64.22,0,0,1,6.19-5.44c2.16-1.71,4.43-3.31,6.77-4.82s4.77-2.92,7.25-4.26,5-2.6,7.66-3.79a33,33,0,0,0-4.29.67c-1.42.3-2.82.69-4.21,1.11a57,57,0,0,0-15.69,7.7c-.6.43-1.21.85-1.79,1.31l-1.74,1.37-1.66,1.46c-.56.48-1.08,1-1.62,1.53a45.56,45.56,0,0,0-10,14.58,20.49,20.49,0,0,0-.81,2.06c-.24.7-.53,1.38-.72,2.09a42.2,42.2,0,0,0-1.05,4.27l-.2,1.08a9.71,9.71,0,0,0-.17,1.08c-.08.73-.16,1.45-.22,2.17a42,42,0,0,0-.12,4.34C179.94,123.91,180.15,123.23,180.37,122.54Z"/>
            <path class="cls-2" d="M265.86,181.52a88.41,88.41,0,0,1-9.64,5.74l-1.27.62-1.27.58-.64.3-.65.27c-.44.18-.87.37-1.31.54-1.74.72-3.54,1.3-5.37,1.88a32.4,32.4,0,0,0,5.7-.84,41.23,41.23,0,0,0,5.52-1.77,53.38,53.38,0,0,0,10.18-5.48A65.42,65.42,0,0,0,276,176a56,56,0,0,0,7.44-8.76c-2.82,2.59-5.68,5.07-8.59,7.47S269,179.41,265.86,181.52Z"/>
            <path d="M708.55,132.91A68.56,68.56,0,1,0,640,201.46,68.55,68.55,0,0,0,708.55,132.91Zm-27,41.41a66,66,0,0,1-8.91,7.32,52.91,52.91,0,0,1-10.19,5.48,41.56,41.56,0,0,1-5.51,1.77,32.54,32.54,0,0,1-5.7.84c1.82-.58,3.62-1.16,5.37-1.88.44-.17.87-.36,1.3-.54l.65-.27.64-.3,1.28-.58,1.26-.62a88.55,88.55,0,0,0,9.65-5.74c3.09-2.11,6.08-4.39,9-6.77s5.77-4.88,8.59-7.47A55,55,0,0,1,681.52,174.32ZM586,118.09a9.71,9.71,0,0,1,.17-1.08l.2-1.08a42.2,42.2,0,0,1,1.05-4.27c.19-.71.48-1.39.72-2.09a20.49,20.49,0,0,1,.81-2.06,45.56,45.56,0,0,1,10-14.58c.54-.51,1.06-1.05,1.62-1.53l1.66-1.46L604,88.57c.58-.46,1.19-.88,1.79-1.31a56.68,56.68,0,0,1,15.69-7.7c1.39-.42,2.79-.81,4.21-1.11a33,33,0,0,1,4.29-.67c-2.63,1.19-5.17,2.44-7.66,3.79s-4.9,2.75-7.25,4.26-4.61,3.11-6.78,4.82a65.33,65.33,0,0,0-6.18,5.44,59.86,59.86,0,0,0-10,13c-.37.58-.68,1.2-1,1.81s-.65,1.22-.94,1.85c-.57,1.26-1.2,2.52-1.68,3.83-.26.65-.56,1.29-.78,2s-.46,1.33-.71,2-.45,1.35-.65,2-.43,1.37-.67,2.06c0-1.43,0-2.9.11-4.34C585.88,119.54,586,118.82,586,118.09Z"/>
<!--            <path-->
<!--                d="M585.7,124.6c.24-.69.45-1.37.67-2.06s.39-1.36.65-2,.48-1.34.71-2,.52-1.31.78-2c.48-1.31,1.11-2.57,1.68-3.83.29-.63.63-1.23.94-1.85s.63-1.23,1-1.81a59.86,59.86,0,0,1,10-13,65.33,65.33,0,0,1,6.18-5.44c2.17-1.71,4.44-3.31,6.78-4.82s4.77-2.92,7.25-4.26,5-2.6,7.66-3.79a33,33,0,0,0-4.29.67c-1.42.3-2.82.69-4.21,1.11a56.68,56.68,0,0,0-15.69,7.7c-.6.43-1.21.85-1.79,1.31l-1.74,1.37-1.66,1.46c-.56.48-1.08,1-1.62,1.53a45.56,45.56,0,0,0-10,14.58,20.49,20.49,0,0,0-.81,2.06c-.24.7-.53,1.38-.72,2.09a42.2,42.2,0,0,0-1.05,4.27l-.2,1.08a9.71,9.71,0,0,0-.17,1.08c-.08.73-.16,1.45-.23,2.17C585.67,121.7,585.7,123.17,585.7,124.6Z"/>-->
<!--            <path-->
<!--                d="M680.37,173c-2.93,2.38-5.92,4.66-9,6.77a88.55,88.55,0,0,1-9.65,5.74l-1.26.62-1.28.58-.64.3-.65.27c-.43.18-.86.37-1.3.54-1.75.72-3.55,1.3-5.37,1.88a32.54,32.54,0,0,0,5.7-.84,41.56,41.56,0,0,0,5.51-1.77,52.91,52.91,0,0,0,10.19-5.48,66,66,0,0,0,8.91-7.32,55,55,0,0,0,7.44-8.76C686.14,168.15,683.29,170.63,680.37,173Z"/>-->
        </g>
    </g>
</svg>